<?xml version="1.0" encoding="iso-8859-1"?>
<!-- Generator: Adobe Illustrator 17.1.0, SVG Export Plug-In . SVG Version: 6.00 Build 0)  -->
<!DOCTYPE svg PUBLIC "-//W3C//DTD SVG 1.1//EN" "http://www.w3.org/Graphics/SVG/1.1/DTD/svg11.dtd">
<svg version="1.1" id="Capa_1" xmlns="http://www.w3.org/2000/svg" xmlns:xlink="http://www.w3.org/1999/xlink" x="0px" y="0px"
	 viewBox="0 0 382.232 382.232" style="enable-background:new 0 0 382.232 382.232;" xml:space="preserve">
<g>
	<path fill="#C9C9C9" d="M362.232,22.764H20c-11.028,0-20,8.972-20,20v296.704c0,11.028,8.972,20,20,20h342.232c11.028,0,20-8.972,20-20V42.764
		C382.232,31.736,373.261,22.764,362.232,22.764z M107.14,56.014h167.953v40.57H107.14V56.014z M338.237,159.252v28.183h-99.558
		v-28.183H338.237z M180.003,218.054c0,16.01-4.839,30.074-14.017,40.818c5.505,7.926,8.517,17.612,8.517,27.506l-0.004,11.43
		l-0.061,23.259l-114.315-0.024l-0.065-35.256c0-12.717,2.345-21.85,7.353-28.499c-8.33-10.652-12.721-24.168-12.721-39.235v-19.122
		c0-34.55,28.108-62.658,62.657-62.658s62.656,28.108,62.656,62.658V218.054z M238.679,221.559h99.558v28.183h-99.558V221.559z
		 M340.345,312.049h-99.558v-28.183h99.558V312.049z"/>
	<path fill="#C9C9C9" d="M106.544,194.88c-1.865,0-2.604-1.195-6.709-7.827c-1.281-2.071-3.192-5.16-4.49-6.978
		c-1.289,1.768-3.182,4.747-4.452,6.748c-4.389,6.91-5.17,8.057-7.025,8.057h-7.099c-0.257,1.864-0.387,3.732-0.387,5.574V211.9
		c0,22.588,18.376,40.964,40.964,40.964s40.965-18.376,40.965-40.964v-11.446c0-1.843-0.13-3.711-0.387-5.574H106.544z"/>
	<polygon fill="#C9C9C9" points="117.346,296.598 143.96,268.37 90.732,268.37 	"/>
</g>
<g>
</g>
<g>
</g>
<g>
</g>
<g>
</g>
<g>
</g>
<g>
</g>
<g>
</g>
<g>
</g>
<g>
</g>
<g>
</g>
<g>
</g>
<g>
</g>
<g>
</g>
<g>
</g>
<g>
</g>
</svg>
