<svg width="35" height="35" viewBox="0 0 399 400" xmlns="http://www.w3.org/2000/svg">

 <g>
  <title>background</title>
  <rect fill="none" id="canvas_background" height="402" width="401" y="-1" x="-1"/>
 </g>
 <g>
  <title>Layer 1</title>
  <g id="svgg">
   <path fill-rule="evenodd" fill="#ffffff" d="m95.833,200.347l0,77.431l16.667,0l16.667,0l0,-49c0,-29.179 0.255,-48.841 0.63,-48.609c0.347,0.214 17.296,22.264 37.664,48.999l37.034,48.61l14.766,0l14.767,0l0,-30.209l0,-30.208l36.805,0l36.806,0l0,-15.278l0,-15.277l-36.806,0l-36.805,0l0,-16.667l0,-16.667l42.014,0l42.014,0l0,-15.278l0,-15.277l-59.023,0l-59.023,0l-0.179,47.559l-0.178,47.559l-36.111,-47.529l-36.111,-47.528l-15.799,-0.031l-15.799,-0.03l0,77.43" id="path0"/>
   <path fill-rule="evenodd" fill="#009f4e" d="m184.722,5.29c-122.277,11.01 -203.697,125.667 -173.343,244.103c24.554,95.8 120.093,158.539 218.135,143.244c126.814,-19.784 200.248,-153.175 149.234,-271.082c-32.483,-75.078 -113.341,-123.53 -194.026,-116.265m-21.18,164.489l36.111,47.516l0.178,-47.536l0.179,-47.537l59.023,0l59.023,0l0,15.625l0,15.625l-42.014,0l-42.014,0l0,16.32l0,16.319l37.153,0l37.152,0l0,15.972l0,15.973l-37.152,0l-37.153,0l0,30.208l0,30.208l-14.794,0l-14.794,0l-37.116,-48.738l-37.116,-48.737l-0.178,48.737l-0.178,48.738l-17.357,0l-17.356,0l0,-78.125l0,-78.125l16.146,0.021l16.146,0.02l36.111,47.516" id="path1"/>
   <path fill-rule="evenodd" fill="#53b77d" d="m129.167,229.167c0,27.245 0.152,49.385 0.338,49.199c0.46,-0.461 0.487,-97.911 0.027,-98.371c-0.201,-0.201 -0.365,21.926 -0.365,49.172m123.041,-42.536c10.19,0.109 27.065,0.109 37.5,0.001c10.435,-0.109 2.098,-0.197 -18.527,-0.197c-20.625,0 -29.163,0.088 -18.973,0.196" id="path2"/>
   <path fill-rule="evenodd" fill="#93d0aa" id="path3"/>
   <path fill-rule="evenodd" fill="#cce8d4" d="m95.459,123.09c-0.182,0.478 -0.25,35.556 -0.152,77.952l0.179,77.083l16.667,0.019l16.666,0.018l-16.493,-0.204l-16.493,-0.205l0,-77.405l0,-77.405l15.799,-0.201l15.799,-0.2l-15.821,-0.16c-12.137,-0.123 -15.897,0.042 -16.151,0.708m133.881,-0.347c16.328,0.104 43.047,0.104 59.375,0c16.328,-0.104 2.969,-0.189 -29.687,-0.189c-32.656,0 -46.016,0.085 -29.688,0.189m78.458,79.161l-0.159,15.445l-36.979,0.186l-36.979,0.186l37.001,0.167c29.464,0.133 37.07,-0.013 37.34,-0.718c0.187,-0.487 0.249,-7.596 0.137,-15.798l-0.202,-14.914l-0.159,15.446m-95.819,76.392c4.106,0.123 10.825,0.123 14.931,0c4.106,-0.123 0.746,-0.223 -7.466,-0.223c-8.211,0 -11.571,0.1 -7.465,0.223" id="path4"/>
  </g>
 </g>
</svg>
