<?xml version="1.0" standalone="no"?>
<!DOCTYPE svg PUBLIC "-//W3C//DTD SVG 20010904//EN"
 "http://www.w3.org/TR/2001/REC-SVG-20010904/DTD/svg10.dtd">
<svg version="1.0" xmlns="http://www.w3.org/2000/svg"
 width="45px" height="45px" viewBox="0 0 576.000000 577.000000"
 preserveAspectRatio="xMidYMid meet">
<metadata>
Created by NF Cybersecurity and Antifraud Firm
</metadata>
<g transform="translate(0.000000,577.000000) scale(0.100000,-0.100000)"
fill="#FFFFFF" stroke="none">
<path d="M2710 5694 c-486 -43 -885 -166 -1259 -389 -376 -225 -730 -571 -955
-935 -249 -402 -391 -857 -415 -1330 -41 -804 250 -1562 819 -2130 435 -436
960 -698 1590 -797 165 -25 616 -26 780 0 633 99 1160 364 1595 801 155 155
235 254 357 436 434 651 573 1484 373 2245 -106 406 -286 758 -550 1080 -100
122 -319 337 -435 426 -401 312 -870 507 -1376 574 -116 15 -434 27 -524 19z
m-355 -2368 l520 -684 3 684 2 684 850 0 850 0 0 -225 0 -225 -605 0 -605 0 0
-235 0 -235 535 0 535 0 0 -230 0 -230 -535 0 -535 0 0 -435 0 -435 -213 0
-214 0 -534 702 -534 701 -3 -701 -2 -702 -250 0 -250 0 0 1125 0 1125 233 0
232 0 520 -684z"/>
</g>
</svg>
