<?xml version="1.0" encoding="iso-8859-1"?>
<!DOCTYPE svg PUBLIC "-//W3C//DTD SVG 1.1//EN" "http://www.w3.org/Graphics/SVG/1.1/DTD/svg11.dtd">
<svg version="1.1" id="Capa_1" xmlns="http://www.w3.org/2000/svg" xmlns:xlink="http://www.w3.org/1999/xlink" x="0px" y="0px"
	 width="45px" viewBox="0 0 942 942" style="enable-background:new 0 0 942 942;" xml:space="preserve">
<g>
	<g>
		<g>
			<path fill="#ffffff" d="M125,516.15v-351.9C50,197.65,0,272.55,0,356.75v185c0,16.9,16.4,29,32.6,23.801C58.6,557.35,96,542.05,125,516.15z"/>
			<path fill="#ffffff" d="M817,164.25v351.9c29,25.9,66.4,41.2,92.4,49.5c16.1,5.1,32.6-6.9,32.6-23.8v-185C942,272.55,892,197.65,817,164.25z"/>
			<path fill="#ffffff" d="M472,843.35c48.1,0,92-10.7,125.8-28.3c-15.6-2.301-30.899-6.601-45.5-12.801c-22.6-9.5-42.8-23.199-60.2-40.6
				c-7.6-7.6-14.399-15.7-20.5-24.2c-0.199,0.2-0.5,0.5-0.5,0.7c-0.199-0.2-0.399-0.5-0.5-0.7c-6.1,8.601-13,16.7-20.5,24.2
				c-17.399,17.4-37.699,31.1-60.199,40.6c-14.7,6.2-29.9,10.5-45.5,12.801c33.6,17.6,77.5,28.3,125.6,28.3c0.3,0,0.7,0,1,0
				C471,843.35,471.7,843.35,472,843.35z"/>
			<path fill="#ffffff" d="M243.3,764.15c17.6,9.3,36.601,14.8,55.9,16.8c44.399,4.5,90.399-9.899,123.7-41.5c12.1-11.5,22.399-24.899,30.199-39.6
				l0.301-138.2c-7.2,7.4-17.2,13.1-30.7,13.1c-39.7,0-54-120.6,48.399-120.6c102.4,0,88.101,120.6,48.4,120.6
				c-13.6,0-23.5-5.699-30.7-13.1l0.3,138.2c7.801,14.8,18.101,28.2,30.2,39.6c33.3,31.601,79.2,46,123.7,41.5
				c19.3-2,38.3-7.5,55.9-16.8c50.399-26.7,83.3-80.2,83.3-137.4c0-0.1,0-479.399,0-479.399l-39.5-29c-17.4-13-38.7-19.7-60.4-19.7
				H259.9c-21.7,0-43,6.8-60.4,19.7l-39.5,29c0,0,0,479.3,0,479.399C160,683.95,192.9,737.45,243.3,764.15z M572,350.65h98
				c18.7,0,30.8,19.7,22.3,36.3c-13.3,25.9-40.2,43.7-71.3,43.7s-58-17.8-71.3-43.7C541.2,370.35,553.4,350.65,572,350.65z
				 M272,350.65h98c18.7,0,30.8,19.7,22.3,36.3c-13.3,25.9-40.2,43.7-71.3,43.7s-58-17.8-71.3-43.7
				C241.2,370.35,253.4,350.65,272,350.65z"/>
		</g>
	</g>
</g>
</svg>
